<svg width="74" height="77" viewBox="0 0 74 77" fill="none" xmlns="http://www.w3.org/2000/svg">
<g clip-path="url(#clip0_63_588)">
<path d="M45.4704 0C44.7685 0 44.2 0.56472 44.2 1.26102C44.2 1.95732 44.7685 2.52204 45.4704 2.52204C51.7256 2.52204 56.8147 7.5731 56.8147 13.7818V34.9158C56.8147 35.6122 57.3833 36.1768 58.0852 36.1768C58.787 36.1768 59.3557 35.6122 59.3557 34.9158V13.7818C59.3557 6.18259 53.1266 0 45.4704 0Z" fill="#109BBB"/>
<path d="M59.7929 0C59.091 0 58.5225 0.56472 58.5225 1.26102C58.5225 1.95732 59.091 2.52204 59.7929 2.52204C66.0482 2.52204 71.1372 7.5731 71.1372 13.7818V34.9158C71.1372 35.6122 71.7059 36.1768 72.4077 36.1768C73.1097 36.1768 73.6782 35.6122 73.6782 34.9158V13.7818C73.6782 6.18259 67.4491 0 59.7929 0Z" fill="#109BBB"/>
<path d="M47.4032 23.4633V53.5385C47.4032 66.4717 36.922 76.9999 24.0467 76.9999C15.6057 76.9999 7.79984 72.4107 3.65873 65.0238C3.08459 63.993 3.45118 62.6801 4.47706 62.1034C5.5033 61.5144 6.8105 61.8825 7.38463 62.9132C10.7684 68.9626 17.1572 72.7052 24.0467 72.7052C34.5645 72.7052 43.1277 64.1035 43.1277 53.5385V23.4633C43.1277 12.8983 34.5645 4.29666 24.0467 4.29666C13.5289 4.29666 4.97814 12.8738 4.95371 23.4388V23.4633C4.95371 24.6536 4.00077 25.6107 2.81597 25.6107C1.64314 25.6107 0.702654 24.6781 0.678223 23.5001V23.4633C0.678223 10.5301 11.1592 0.00195312 24.0467 0.00195312C36.922 0.00195312 47.4032 10.5301 47.4032 23.4633Z" fill="#05334C"/>
</g>
<defs>
<clipPath id="clip0_63_588">
<rect width="73" height="77" fill="white" transform="translate(0.678223)"/>
</clipPath>
</defs>
</svg>

