<svg width="157" height="166" viewBox="0 0 157 166" fill="none" xmlns="http://www.w3.org/2000/svg">
<g clip-path="url(#clip0_63_588)">
<path d="M96.3984 0C94.8983 0 93.6833 1.21745 93.6833 2.71856C93.6833 4.21967 94.8983 5.43712 96.3984 5.43712C109.766 5.43712 120.641 16.3264 120.641 29.7114V75.273C120.641 76.7743 121.856 77.9916 123.356 77.9916C124.856 77.9916 126.071 76.7743 126.071 75.273V29.7114C126.071 13.3287 112.759 0 96.3984 0Z" fill="#109BBB"/>
<path d="M127.006 0C125.505 0 124.291 1.21745 124.291 2.71856C124.291 4.21967 125.505 5.43712 127.006 5.43712C140.373 5.43712 151.248 16.3264 151.248 29.7114V75.273C151.248 76.7743 152.463 77.9916 153.963 77.9916C155.463 77.9916 156.678 76.7743 156.678 75.273V29.7114C156.678 13.3287 143.367 0 127.006 0Z" fill="#109BBB"/>
<path d="M100.529 50.5834V115.421C100.529 143.303 78.1307 166 50.6163 166C32.578 166 15.897 156.106 7.04752 140.181C5.8206 137.959 6.604 135.129 8.79628 133.885C10.9893 132.616 13.7828 133.409 15.0097 135.631C22.2407 148.673 35.8935 156.741 50.6163 156.741C73.0928 156.741 91.3922 138.197 91.3922 115.421V50.5834C91.3922 27.807 73.0928 9.26311 50.6163 9.26311C28.1399 9.26311 9.86709 27.7541 9.81489 50.5305V50.5834C9.81489 53.1494 7.77845 55.2128 5.24655 55.2128C2.74024 55.2128 0.730433 53.2023 0.678223 50.6628V50.5834C0.678224 22.7015 23.0758 0.00439453 50.6163 0.00439453C78.1307 0.00439453 100.529 22.7015 100.529 50.5834Z" fill="#05334C"/>
</g>
<defs>
<clipPath id="clip0_63_588">
<rect width="156" height="166" fill="white" transform="translate(0.678223)"/>
</clipPath>
</defs>
</svg>
